<?xml version="1.0" standalone="no"?>
<!DOCTYPE svg PUBLIC "-//W3C//DTD SVG 20010904//EN"
 "http://www.w3.org/TR/2001/REC-SVG-20010904/DTD/svg10.dtd">
<svg version="1.0" xmlns="http://www.w3.org/2000/svg"
 width="512.000000pt" height="512.000000pt" viewBox="0 0 512.000000 512.000000"
 preserveAspectRatio="xMidYMid meet">

<g transform="translate(0.000000,512.000000) scale(0.100000,-0.100000)"
fill="#000000" stroke="none">
<path d="M4160 5107 c-27 -9 -158 -147 -608 -642 l-573 -630 -210 -3 -209 -2
0 -1210 0 -1210 -32 0 c-121 -1 -198 -62 -198 -157 0 -28 15 -64 58 -137 61
-106 88 -133 146 -146 79 -18 130 18 205 147 33 58 388 480 505 601 l22 23
862 -97 861 -96 45 22 c55 26 92 91 82 143 -4 17 -109 290 -235 607 l-229 575
-147 1040 c-80 572 -151 1056 -156 1075 -11 44 -54 87 -100 100 -41 12 -45 12
-89 -3z"/>
<path d="M1680 2848 c-51 -35 -72 -69 -72 -120 -3 -162 212 -217 282 -73 26
53 25 82 -3 135 -41 77 -138 104 -207 58z"/>
</g>
</svg>
